<svg xmlns="http://www.w3.org/2000/svg" aria-hidden="true" style="position:absolute;width:0;height:0;overflow:hidden">
  <defs>
    <symbol id="icon-youtube" viewBox="0 0 45 32">
      <path d="M43.932 4.7A5.349 5.349 0 0 0 40.173.932C36.832.015 23.467 0 23.467 0S10.104-.015 6.761.862a5.466 5.466 0 0 0-3.768 3.793c-.881 3.341-.89 10.27-.89 10.27s-.009 6.963.866 10.27A5.345 5.345 0 0 0 6.73 28.96c3.375.917 16.704.932 16.704.932s13.365.015 16.706-.86a5.366 5.366 0 0 0 3.769-3.761c.883-3.339.89-10.266.89-10.266s.043-6.965-.868-10.306zm-24.74 16.644.011-12.8 11.108 6.411-11.119 6.389z"/>
    </symbol>
    <symbol id="icon-close" viewBox="0 0 32 32">
      <path d="m29.671 28.728-.943.943a1.333 1.333 0 0 1-1.886 0L16 18.829 5.158 29.671a1.333 1.333 0 0 1-1.886 0l-.943-.943a1.333 1.333 0 0 1 0-1.886L13.171 16 2.329 5.158a1.333 1.333 0 0 1 0-1.886l.943-.943a1.333 1.333 0 0 1 1.886 0L16 13.171 26.842 2.329a1.333 1.333 0 0 1 1.886 0l.943.943a1.333 1.333 0 0 1 0 1.886L18.829 16l10.842 10.842a1.333 1.333 0 0 1 0 1.886z"/>
    </symbol>
  </defs>
</svg>
