<svg xmlns="http://www.w3.org/2000/svg" aria-hidden="true" style="position:absolute;width:0;height:0;overflow:hidden">
    <defs>
        <symbol id="icon-close" viewBox="0 0 32 32">
            <path d="M27.179.918 15.864 12.23 4.552.918.781 4.689l11.312 11.312L.781 27.313l3.771 3.771 11.312-11.312 11.315 11.312 3.771-3.771-11.312-11.312L30.95 4.689 27.179.918z"/>
        </symbol>
        <symbol id="icon-menu" viewBox="0 0 43 32">
            <path d="M0 0h42.667v5.333H0V0zm10.667 13.333h32v5.333h-32v-5.333zM24 26.667h18.667V32H24v-5.333z"/>
        </symbol>
        <symbol id="icon-company-logo" viewBox="0 0 110 32">
            <path d="M16.403.142c.434-.05.936.047 1.354.174.945.288 1.714.905 2.169 1.785.474.902.564 1.957.252 2.927-.397 1.196-1.247 1.797-2.309 2.35l.012 3.489c.759.231 1.498.495 2.187.894 1.584.919 2.669 2.467 3.123 4.23a7.205 7.205 0 0 1-.76 5.459c-.887 1.493-2.3 2.597-3.993 3.019-2.211.552-4.086-.047-5.986-1.176a156.6 156.6 0 0 0-2.489 2.725c.366.864.487 1.77.244 2.687-.237.897-.866 1.666-1.67 2.121-.901.51-1.928.603-2.916.321-.981-.281-1.805-.889-2.284-1.801-.472-.897-.511-1.949-.206-2.907.348-1.089 1.057-1.759 2.053-2.257 1.072-.419 1.958-.281 3.005.096.872-.917 1.693-1.88 2.574-2.789-.968-1.898-1.281-3.515-.778-5.606-1.096-.511-2.153-1.108-3.249-1.62-.586.61-1.301 1.028-2.142 1.169-1.003.169-2.061-.105-2.885-.694a3.671 3.671 0 0 1-1.486-2.493c-.135-.97.12-2.038.741-2.803.64-.789 1.634-1.265 2.637-1.37a3.727 3.727 0 0 1 2.734.836c.976.818 1.258 1.834 1.376 3.045 1.039.637 2.229 1.129 3.312 1.698 1.409-1.665 2.439-2.191 4.492-2.824l.002-3.463a4.767 4.767 0 0 1-1.055-.561 3.715 3.715 0 0 1-1.473-2.501 3.76 3.76 0 0 1 .779-2.782C14.446.669 15.353.282 16.404.143zm4.528 17.225a4.35 4.35 0 1 0-8.663.76 4.35 4.35 0 0 0 8.662-.76zM102.107 11.958c.708.001 1.415.011 2.124.029l-.004 3.742c.546-.424 1.14-.739 1.831-.843.933-.141 1.884.1 2.637.669.908.687 1.384 1.844 1.523 2.949.175 1.401-.154 2.749-1.019 3.866-.574.554-1.263.941-2.057 1.072-1.165.191-2.088-.216-2.998-.894l-.004.817-2.032-.003-.001-11.404zm3.64 4.904c-.632.21-1.07.51-1.378 1.118-.342.675-.365 1.508-.099 2.211.204.538.585 1.004 1.118 1.244.385.175.749.18 1.164.155.66-.249 1.103-.569 1.402-1.229.311-.689.307-1.52.011-2.214-.228-.533-.632-.963-1.177-1.174-.341-.131-.682-.149-1.042-.111zM41.272 11.936c1.246 3.84 2.84 7.575 4.055 11.425l-2.296.003c-.269-.822-.529-1.752-.939-2.512-.268-.115-.586-.076-.873-.073a122.7 122.7 0 0 1-3.323-.012c-.348.849-.628 1.722-.903 2.596l-2.339-.002c1.221-3.833 2.677-7.617 3.996-11.42.872.019 1.749-.001 2.622-.005zm-1.308 2.839c-.483 1.374-.934 2.768-1.464 4.125l1.681-.001 1.306-.015c-.184-.518-1.25-3.88-1.524-4.109zM89.685 11.961l2.196.013c-.03 2.647-.007 5.298-.007 7.945-.001 1.093.11 2.287-.013 3.365l-.121.083h-2.058l-.004-4.889c-1.645-.046-3.303-.005-4.949-.003l.001 4.894-2.209-.004.009-11.401 2.2.005.002 4.662h4.957l-.003-4.67zM93.202 15.121c.729.021 1.46.013 2.188.017-.009 1.165-.193 4.384.089 5.347.111.38.333.728.693.913.541.278 1.09.117 1.628-.072.238-.266.443-.515.561-.859.386-1.123.18-4.006.174-5.343.694.019 1.391.004 2.085 0-.016.8-.003 1.603-.004 2.404l.011 5.834c-.683.01-1.365.005-2.047-.015l-.063-.074a1.94 1.94 0 0 0-.018-.487c-.639.277-1.209.697-1.936.712-.843.017-1.758-.245-2.363-.852-.459-.459-.739-1.076-.883-1.703-.31-1.348-.127-4.332-.113-5.824zM63.686 14.891c1.089-.085 2.224-.008 3.104.725.617.514.816 1.13.883 1.897l-1.968-.002c-.113-.21-.226-.454-.404-.619a1.505 1.505 0 0 0-1.078-.377c-.298.016-.679.135-.865.387-.113.154-.175.311-.132.503.224 1.009 2.79.884 3.607 1.419.52.341.919.951 1.034 1.56a2.289 2.289 0 0 1-.409 1.775c-.627.865-1.593 1.175-2.599 1.329-.931.056-2.011-.194-2.756-.761-.699-.532-.95-1.185-1.045-2.025.663.001 1.326-.005 1.989-.018.039.125.082.245.145.361.289.533.865.651 1.4.808.353-.081.831-.172 1.082-.457.151-.172.204-.471.14-.691-.245-.843-2.703-.943-3.556-1.468-.505-.311-.876-.764-1.011-1.349-.121-.53-.075-1.125.223-1.59.538-.84 1.28-1.185 2.216-1.408zM76.93 14.889c.62-.05 1.227-.047 1.831.117.697.189 1.438.578 1.79 1.239.169.317.3.886.186 1.237-.565.122-1.255.04-1.835.033-.085-.287-.158-.509-.391-.707a1.415 1.415 0 0 0-1.062-.322c-.3.031-.685.178-.852.447-.1.16-.141.325-.078.509.362 1.068 2.535.814 3.38 1.297.538.308.988.848 1.141 1.454.164.65.056 1.372-.319 1.931-.56.835-1.449 1.149-2.388 1.331-.922.114-1.989-.082-2.759-.613-.791-.545-1.028-1.229-1.206-2.123l1.973-.015c.12.302.229.537.485.746.341.279.745.406 1.184.347.341-.045.676-.202.88-.487.133-.187.2-.414.136-.642-.247-.878-2.426-.823-3.29-1.288-.584-.315-1.046-.838-1.231-1.481a2.017 2.017 0 0 1 .196-1.599c.477-.81 1.353-1.206 2.231-1.409zM52.641 12.857c.655.023 1.315.009 1.97.011-.007.74.004 1.48.032 2.219l1.944.001-.004 1.694-1.851-.001c.001 1.066-.243 3.817.246 4.641.382.301 1.145.189 1.609.183l-.007 1.404c.004.145.004.218-.07.344-.259.124-.524.152-.81.154-.752.007-1.791-.129-2.331-.693-1.086-1.131-.739-4.457-.734-6.035l-1.254.002.004-1.698 1.249.008.007-2.236zM69.54 12.848l1.934.011c-.015.741.016 1.485.03 2.226l1.976-.004-.003 1.702-1.859-.001c.023 1.015-.226 3.85.234 4.617.494.295 1.113.216 1.669.215-.007.489.003.979.005 1.469l-.023.186c-.191.202-.486.194-.747.2-.794.019-1.891-.107-2.467-.71-1.075-1.126-.74-4.405-.731-5.978l-1.323.001c-.017-.564-.01-1.129-.015-1.692l1.318.007.004-2.249zM27.821 11.582c.102-.005.2-.007.302.008.316.046.628.198.802.476.185.294.21.687.235 1.028.125 1.688.032 3.444.032 5.138 0 1.384.153 3.26-.104 4.592-.081.419-.359.619-.691.846-.127.015-.259.033-.387.026a1.043 1.043 0 0 1-.74-.361c-.183-.216-.177-.648-.193-.919-.116-1.942-.018-3.946-.016-5.893.001-1.107-.151-3.225.082-4.213.083-.353.402-.539.68-.727zM50.243 15.058l.278-.003c.329.368.166 1.535.155 2.018-.696-.007-1.354-.035-1.899.471-1.023.949-.678 4.425-.688 5.82-.548-.005-1.617.195-2.035-.154l-.022-.346c.01-2.586-.055-5.169-.038-7.754.664.021 1.33.007 1.994.003l-.023 1.142c.123-.177.246-.366.389-.527.503-.568 1.186-.619 1.891-.669zM57.795 15.092l2.086.001.005 8.275-2.11-.003.019-8.273zM24.906 14.293c.343.063.645.192.845.489.308.459.316 4.955.162 5.596-.084.351-.388.522-.675.691-.33-.02-.763-.049-.983-.335-.327-.425-.3-5.203-.114-5.802.108-.348.466-.495.765-.639zM58.701 11.683a1.153 1.153 0 1 1 .27 2.29 1.153 1.153 0 0 1-.27-2.29z"/>
        </symbol>
        <symbol id="icon-play-btn" viewBox="0 0 24 32">
            <path d="M.858 31.818a1.603 1.603 0 0 0 1.653-.103l20.8-14.4a1.604 1.604 0 0 0 .506-2.057 1.604 1.604 0 0 0-.506-.573L2.511.285A1.596 1.596 0 0 0 0 1.6v28.8a1.598 1.598 0 0 0 .858 1.417zM3.2 4.654 19.589 16 3.2 27.346V4.655z"/>
        </symbol>
        <symbol id="icon-learn-more" viewBox="0 0 17 32">
            <path d="m0 31.878 17.067-14.933L0 2.012v29.867z"/>
        </symbol>
        <symbol id="icon-learn-more-btn" viewBox="0 0 32 32">
            <path d="m31.33 15.949-3.232-3.232-9.813 9.813V.619h-4.571V22.53l-9.813-9.813-3.232 3.232 15.33 15.33 15.33-15.33z"/>
        </symbol>
        <symbol id="icon-logoartistsHub" viewBox="0 0 110 32">
            <path d="M16.403 0.241c0.434-0.050 0.936 0.047 1.354 0.174 0.945 0.288 1.714 0.904 2.169 1.784 0.474 0.902 0.564 1.958 0.252 2.927-0.397 1.196-1.248 1.798-2.311 2.351l0.012 3.489c0.759 0.231 1.498 0.494 2.187 0.893 1.585 0.918 2.668 2.467 3.123 4.23 0.48 1.848 0.208 3.812-0.759 5.46-0.887 1.493-2.3 2.596-3.993 3.018-2.211 0.553-4.087-0.046-5.987-1.175-0.84 0.898-1.67 1.806-2.489 2.724 0.366 0.864 0.488 1.771 0.245 2.689-0.237 0.897-0.866 1.666-1.67 2.121-0.901 0.51-1.928 0.602-2.916 0.32-0.981-0.281-1.805-0.888-2.284-1.8-0.472-0.897-0.511-1.949-0.206-2.907 0.348-1.089 1.056-1.759 2.052-2.257 1.072-0.419 1.959-0.281 3.006 0.096 0.872-0.917 1.692-1.881 2.573-2.79-0.968-1.898-1.281-3.515-0.778-5.606-1.095-0.511-2.152-1.107-3.248-1.619-0.586 0.61-1.302 1.028-2.143 1.169-1.003 0.169-2.060-0.105-2.884-0.694-0.817-0.592-1.354-1.494-1.486-2.494-0.135-0.969 0.12-2.037 0.741-2.802 0.64-0.789 1.634-1.266 2.637-1.371 0.986-0.096 1.969 0.205 2.733 0.836 0.976 0.818 1.259 1.835 1.377 3.046 1.039 0.637 2.229 1.128 3.312 1.697 1.409-1.665 2.439-2.191 4.492-2.824l0.001-3.463c-0.367-0.147-0.734-0.326-1.054-0.561-0.81-0.599-1.343-1.502-1.474-2.501-0.121-0.994 0.16-1.995 0.78-2.781 0.678-0.851 1.585-1.238 2.636-1.377zM20.931 17.465c-0.209-2.382-2.302-4.149-4.685-3.955-2.404 0.196-4.19 2.311-3.979 4.714s2.337 4.176 4.739 3.951c2.38-0.224 4.134-2.328 3.925-4.71z"></path>
            <path d="M102.108 12.055c0.708 0.001 1.416 0.010 2.124 0.028l-0.004 3.743c0.545-0.424 1.14-0.74 1.83-0.844 0.933-0.141 1.885 0.101 2.637 0.67 0.908 0.687 1.385 1.843 1.523 2.947 0.175 1.402-0.154 2.75-1.019 3.867-0.574 0.554-1.262 0.941-2.056 1.072-1.165 0.191-2.089-0.216-2.998-0.894l-0.004 0.818-2.033-0.004-0.001-11.403zM105.748 16.96c-0.631 0.21-1.070 0.509-1.378 1.117-0.342 0.675-0.365 1.509-0.098 2.212 0.203 0.538 0.585 1.004 1.117 1.244 0.386 0.175 0.749 0.18 1.165 0.155 0.659-0.249 1.102-0.569 1.401-1.229 0.312-0.689 0.307-1.52 0.011-2.214-0.227-0.533-0.632-0.963-1.177-1.174-0.341-0.131-0.682-0.149-1.042-0.111z"></path>
            <path d="M41.271 12.034c1.246 3.84 2.84 7.576 4.056 11.426l-2.296 0.002c-0.269-0.822-0.529-1.752-0.939-2.512-0.268-0.115-0.586-0.076-0.873-0.073-1.108 0.011-2.215 0.008-3.323-0.011-0.348 0.848-0.628 1.721-0.903 2.595l-2.339-0.002c1.221-3.833 2.677-7.617 3.996-11.42 0.872 0.019 1.749-0.002 2.622-0.005zM39.962 14.872c-0.483 1.374-0.934 2.768-1.464 4.125l1.681-0.001 1.307-0.014c-0.184-0.517-1.25-3.881-1.524-4.11z"></path>
            <path d="M89.685 12.058l2.196 0.013c-0.030 2.647-0.007 5.298-0.007 7.945-0.001 1.093 0.11 2.287-0.012 3.365l-0.121 0.083h-2.058l-0.004-4.889c-1.645-0.046-3.303-0.005-4.949-0.003l0.001 4.894-2.209-0.004 0.009-11.401 2.201 0.005 0.001 4.661h4.957l-0.003-4.67z"></path>
            <path d="M93.202 15.219c0.729 0.021 1.459 0.013 2.188 0.017-0.009 1.165-0.193 4.384 0.089 5.347 0.111 0.38 0.333 0.728 0.693 0.913 0.541 0.278 1.090 0.117 1.628-0.072 0.238-0.266 0.443-0.515 0.561-0.859 0.386-1.123 0.18-4.006 0.174-5.343 0.694 0.019 1.391 0.004 2.085 0.001-0.016 0.8-0.003 1.603-0.004 2.404l0.011 5.834c-0.683 0.010-1.365 0.005-2.047-0.015l-0.063-0.074c0.010-0.173 0.012-0.314-0.018-0.487-0.639 0.277-1.209 0.697-1.936 0.712-0.843 0.017-1.758-0.245-2.364-0.851-0.459-0.459-0.739-1.077-0.883-1.703-0.31-1.348-0.127-4.332-0.113-5.824z"></path>
            <path d="M63.686 14.989c1.089-0.085 2.224-0.008 3.104 0.725 0.617 0.514 0.816 1.13 0.883 1.897l-1.968-0.002c-0.113-0.21-0.227-0.455-0.404-0.619-0.284-0.262-0.694-0.398-1.078-0.377-0.298 0.016-0.679 0.135-0.865 0.387-0.113 0.154-0.175 0.311-0.132 0.503 0.224 1.009 2.79 0.884 3.607 1.419 0.52 0.341 0.919 0.951 1.034 1.56 0.115 0.623-0.033 1.266-0.408 1.775-0.627 0.865-1.593 1.175-2.599 1.329-0.931 0.056-2.010-0.194-2.756-0.761-0.699-0.532-0.95-1.185-1.045-2.025 0.663 0.001 1.326-0.005 1.989-0.018 0.039 0.125 0.082 0.246 0.145 0.361 0.289 0.533 0.865 0.651 1.4 0.808 0.353-0.081 0.831-0.172 1.082-0.457 0.151-0.172 0.204-0.471 0.14-0.691-0.245-0.843-2.703-0.943-3.556-1.467-0.505-0.311-0.876-0.764-1.011-1.349-0.121-0.53-0.075-1.125 0.223-1.59 0.538-0.84 1.28-1.185 2.216-1.408z"></path>
            <path d="M76.929 14.987c0.62-0.050 1.227-0.047 1.831 0.117 0.697 0.189 1.438 0.578 1.79 1.238 0.17 0.317 0.3 0.886 0.186 1.237-0.565 0.122-1.255 0.039-1.835 0.033-0.086-0.287-0.158-0.509-0.391-0.707-0.295-0.247-0.679-0.364-1.062-0.322-0.3 0.031-0.685 0.178-0.852 0.447-0.1 0.16-0.141 0.324-0.078 0.509 0.363 1.068 2.535 0.814 3.38 1.297 0.538 0.308 0.988 0.849 1.141 1.454 0.164 0.65 0.056 1.372-0.319 1.931-0.56 0.835-1.449 1.149-2.388 1.331-0.921 0.114-1.989-0.082-2.759-0.613-0.791-0.545-1.028-1.229-1.206-2.123l1.973-0.015c0.12 0.302 0.229 0.537 0.485 0.746 0.341 0.279 0.745 0.406 1.184 0.347 0.341-0.045 0.676-0.202 0.88-0.487 0.133-0.187 0.2-0.414 0.136-0.642-0.247-0.878-2.426-0.823-3.29-1.288-0.584-0.315-1.046-0.838-1.231-1.481-0.157-0.544-0.091-1.11 0.196-1.599 0.477-0.81 1.353-1.206 2.231-1.408z"></path>
            <path d="M52.64 12.955c0.655 0.023 1.315 0.009 1.97 0.011-0.007 0.74 0.004 1.48 0.032 2.219l1.944 0.001-0.004 1.694-1.851-0.001c0.001 1.066-0.243 3.817 0.246 4.641 0.382 0.301 1.145 0.189 1.609 0.183l-0.007 1.404c0.004 0.145 0.004 0.218-0.070 0.344-0.259 0.124-0.524 0.152-0.81 0.154-0.752 0.007-1.791-0.129-2.331-0.693-1.086-1.131-0.739-4.457-0.734-6.035l-1.254 0.002 0.004-1.698 1.249 0.008 0.007-2.236z"></path>
            <path d="M69.539 12.946l1.934 0.011c-0.015 0.741 0.016 1.485 0.030 2.226l1.975-0.004-0.003 1.702-1.859-0.001c0.023 1.015-0.226 3.85 0.234 4.617 0.494 0.295 1.113 0.216 1.668 0.215-0.007 0.489 0.003 0.979 0.005 1.469l-0.023 0.186c-0.191 0.202-0.486 0.194-0.747 0.2-0.794 0.019-1.891-0.107-2.467-0.71-1.075-1.125-0.74-4.405-0.731-5.978l-1.323 0.001c-0.017-0.563-0.010-1.129-0.015-1.692l1.318 0.007 0.004-2.249z"></path>
            <path d="M27.82 11.679c0.102-0.005 0.2-0.007 0.302 0.008 0.316 0.046 0.628 0.198 0.802 0.476 0.185 0.294 0.21 0.687 0.235 1.028 0.125 1.688 0.032 3.444 0.032 5.138-0 1.384 0.153 3.26-0.104 4.592-0.081 0.419-0.358 0.619-0.691 0.846-0.127 0.015-0.259 0.033-0.387 0.026-0.285-0.016-0.556-0.143-0.74-0.361-0.183-0.216-0.177-0.648-0.193-0.919-0.116-1.942-0.018-3.946-0.016-5.893 0.001-1.107-0.151-3.225 0.082-4.213 0.083-0.353 0.402-0.539 0.68-0.727z"></path>
            <path d="M50.244 15.156l0.278-0.003c0.329 0.368 0.166 1.535 0.155 2.018-0.696-0.007-1.354-0.035-1.899 0.471-1.023 0.949-0.678 4.425-0.688 5.82-0.548-0.005-1.617 0.195-2.035-0.154l-0.022-0.346c0.010-2.586-0.055-5.169-0.038-7.754 0.664 0.021 1.33 0.007 1.994 0.003l-0.023 1.142c0.123-0.177 0.245-0.366 0.388-0.527 0.503-0.568 1.186-0.619 1.891-0.669z"></path>
            <path d="M57.795 15.19l2.086 0.001 0.005 8.275-2.11-0.003 0.019-8.273z"></path>
            <path d="M24.906 14.391c0.343 0.063 0.645 0.192 0.845 0.489 0.308 0.459 0.316 4.955 0.162 5.596-0.084 0.351-0.388 0.522-0.675 0.691-0.33-0.020-0.763-0.049-0.983-0.335-0.327-0.425-0.3-5.203-0.114-5.802 0.108-0.348 0.466-0.495 0.765-0.64z"></path>
            <path d="M58.7 11.781c0.62-0.073 1.185 0.36 1.276 0.978s-0.325 1.195-0.939 1.304c-0.414 0.073-0.835-0.084-1.099-0.411s-0.33-0.771-0.171-1.161c0.159-0.389 0.516-0.661 0.933-0.71z"></path>
        </symbol>
    </symbol>
    <symbol id="icon-Youtube" viewBox="0 0 31 32">
        <path d="M27.639 9.981a3.199 3.199 0 0 0-2.255-2.261c-2.004-.55-10.024-.559-10.024-.559s-8.018-.009-10.024.517a3.272 3.272 0 0 0-2.261 2.275c-.529 2.004-.534 6.162-.534 6.162s-.005 4.178.52 6.162a3.204 3.204 0 0 0 2.257 2.259c2.025.55 10.022.559 10.022.559s8.019.009 10.024-.516a3.221 3.221 0 0 0 2.262-2.257c.53-2.003.534-6.159.534-6.159s.026-4.179-.521-6.184zm-14.844 9.987.006-7.68 6.665 3.846-6.671 3.834z"/>
    </symbol>
    <symbol id="icon-Facebook" viewBox="0 0 31 32">
        <path d="M28.16 16.51c0-7.112-5.731-12.878-12.8-12.878S2.56 9.398 2.56 16.51c0 6.428 4.681 11.756 10.8 12.722v-8.999h-3.25V16.51h3.25v-2.837c0-3.228 1.911-5.01 4.835-5.01 1.401 0 2.865.252 2.865.252v3.169h-1.614c-1.59 0-2.086.993-2.086 2.011v2.416h3.55l-.567 3.723H17.36v8.999c6.119-.966 10.8-6.294 10.8-12.722z"/>
    </symbol>
    <symbol id="icon-Instagram" viewBox="0 0 31 32">
        <path d="M15.358 6.676c3.078 0 3.442.014 4.652.068 1.125.05 1.732.238 2.137.396.536.207.922.459 1.323.86.405.405.652.788.864 1.323.158.405.346 1.017.396 2.137.054 1.215.068 1.579.068 4.653s-.014 3.442-.068 4.653c-.05 1.125-.238 1.732-.396 2.137a3.558 3.558 0 0 1-.86 1.323 3.62 3.62 0 0 1-1.323.864c-.405.158-1.017.346-2.137.396-1.215.054-1.58.068-4.653.068s-3.442-.014-4.653-.068c-1.125-.05-1.732-.238-2.137-.396a3.558 3.558 0 0 1-1.323-.86 3.625 3.625 0 0 1-.864-1.322c-.158-.405-.346-1.017-.396-2.137-.054-1.215-.068-1.579-.068-4.653s.014-3.442.068-4.653c.05-1.125.238-1.732.396-2.137.207-.536.459-.922.86-1.323a3.62 3.62 0 0 1 1.323-.864c.405-.158 1.017-.346 2.137-.396 1.21-.054 1.575-.068 4.653-.068h.001zm0-2.074c-3.127 0-3.518.014-4.747.068-1.224.054-2.065.252-2.794.536a5.609 5.609 0 0 0-2.042 1.332 5.636 5.636 0 0 0-1.332 2.038c-.284.734-.482 1.57-.536 2.794-.054 1.233-.068 1.624-.068 4.751s.014 3.518.068 4.747c.054 1.224.252 2.065.536 2.794.297.76.688 1.404 1.332 2.042a5.637 5.637 0 0 0 2.038 1.328c.734.284 1.57.482 2.794.536 1.228.054 1.62.068 4.747.068s3.519-.014 4.747-.068c1.224-.054 2.065-.252 2.794-.536.756-.292 1.4-.688 2.038-1.328s1.035-1.282 1.328-2.038c.284-.734.482-1.57.536-2.794.054-1.228.068-1.62.068-4.747s-.014-3.518-.068-4.747c-.054-1.224-.252-2.065-.536-2.794a5.405 5.405 0 0 0-1.318-2.047 5.621 5.621 0 0 0-2.038-1.327c-.734-.284-1.57-.482-2.794-.536-1.233-.058-1.624-.072-4.751-.072l-.001.001z"/>
        <path d="M15.358 10.204a5.918 5.918 0 1 0 5.917 5.917 5.918 5.918 0 0 0-5.917-5.917zm0 9.754a3.838 3.838 0 1 1 0-7.676 3.838 3.838 0 0 1 0 7.676zM22.889 9.97a1.38 1.38 0 1 1-2.761 0 1.38 1.38 0 0 1 2.761 0z"/>
    </symbol>
</defs>
</svg>