<svg width="78" height="26" viewBox="0 0 78 26" fill="none" xmlns="http://www.w3.org/2000/svg">
<path d="M15.8906 0.527077C16.3108 0.478782 16.7974 0.572712 17.2021 0.696022C18.1178 0.974955 18.8621 1.57185 19.3037 2.42454C19.7625 3.29857 19.8504 4.32086 19.5478 5.26048C19.1635 6.41939 18.3389 7.00222 17.3096 7.53782L17.3213 10.9177C18.0568 11.142 18.7726 11.3959 19.4404 11.7829C20.9754 12.6727 22.0255 14.1734 22.4658 15.8806C22.9312 17.671 22.6669 19.5739 21.7305 21.1697C20.8715 22.616 19.5019 23.6842 17.8623 24.0935C15.7203 24.6287 13.9035 24.0494 12.0625 22.9548C11.2488 23.8248 10.4448 24.7044 9.65135 25.5935C10.0061 26.4303 10.1239 27.3087 9.88866 28.198C9.65873 29.0673 9.04963 29.8123 8.27049 30.2527C7.39738 30.7468 6.40251 30.8362 5.4453 30.5622C4.49532 30.2904 3.69671 29.7024 3.23241 28.8181C2.7754 27.9487 2.73689 26.9299 3.03319 26.0017C3.37023 24.947 4.05646 24.2973 5.02147 23.8152C6.06038 23.4088 6.91945 23.5426 7.93358 23.9079C8.77792 23.0194 9.57272 22.0855 10.4258 21.2048C9.48831 19.3663 9.18444 17.8001 9.67186 15.7741C8.61058 15.2787 7.5873 14.7021 6.52537 14.2058C5.95789 14.7965 5.26377 15.2016 4.4492 15.3386C3.47789 15.502 2.45367 15.237 1.65526 14.6667C0.864075 14.0935 0.343597 13.2193 0.215804 12.2507C0.0847484 11.3116 0.332173 10.277 0.933578 9.53587C1.55385 8.77137 2.51626 8.30955 3.48827 8.20774C4.44322 8.11473 5.39599 8.40634 6.13573 9.01731C7.0816 9.80956 7.35502 10.7948 7.46971 11.9685C8.47626 12.5856 9.62893 13.061 10.6777 13.612C12.0424 11.9987 13.0401 11.4899 15.0293 10.8767L15.0303 7.52219C14.6743 7.37971 14.319 7.20627 14.0088 6.97825C13.224 6.39769 12.7083 5.52325 12.581 4.5554C12.4635 3.59254 12.7359 2.62244 13.3369 1.86106C13.9938 1.037 14.872 0.661875 15.8906 0.527077ZM20.2764 17.2136C20.074 14.906 18.0459 13.1948 15.7373 13.3825C13.4082 13.5723 11.6787 15.6213 11.8828 17.949C12.087 20.2774 14.1469 21.9947 16.4736 21.7761C18.7796 21.5588 20.4786 19.5209 20.2764 17.2136Z" fill="#764191"/>
<path d="M39.9814 11.9517C41.1884 15.6717 42.733 19.2906 43.9102 23.021L41.6855 23.0229C41.4248 22.2265 41.1733 21.3257 40.7754 20.5894C40.5154 20.4782 40.2077 20.5155 39.9297 20.519C38.8568 20.5297 37.7837 20.5267 36.7109 20.5083C36.3741 21.3302 36.1026 22.1753 35.8359 23.022L33.5703 23.02C34.7536 19.3067 36.1641 15.6407 37.4414 11.9565C38.2864 11.9749 39.1361 11.9551 39.9814 11.9517ZM38.7129 14.7017C38.2445 16.0332 37.8077 17.383 37.2949 18.6978L38.9238 18.6968L40.1895 18.6831C40.0117 18.1826 38.9786 14.9236 38.7129 14.7017Z" fill="#764191"/>
<path d="M61.6956 14.8145C62.7505 14.7319 63.8501 14.8064 64.7025 15.517C65.3 16.0146 65.4933 16.6121 65.5577 17.3548L63.6511 17.3526C63.5414 17.1487 63.4316 16.9123 63.2596 16.753C62.9849 16.4995 62.587 16.3678 62.2153 16.3876C61.9264 16.4032 61.5576 16.5186 61.3777 16.7629C61.2687 16.9116 61.2085 17.0645 61.2503 17.25C61.4669 18.2277 63.9527 18.1066 64.7442 18.6242C65.2476 18.9541 65.6342 19.5453 65.7461 20.1351C65.8579 20.7383 65.7142 21.3613 65.3503 21.8548C64.7428 22.6923 63.8069 22.9932 62.8327 23.1426C61.9307 23.1971 60.885 22.955 60.1628 22.4056C59.486 21.8902 59.2424 21.2579 59.1504 20.4437C59.7925 20.4452 60.4354 20.4388 61.0775 20.426C61.1151 20.5471 61.1568 20.6639 61.2177 20.7758C61.4974 21.2919 62.056 21.4066 62.5735 21.5588C62.9155 21.4802 63.3785 21.3924 63.6214 21.1163C63.7679 20.9492 63.8189 20.6597 63.7573 20.4473C63.5201 19.6302 61.1384 19.534 60.3122 19.0256C59.823 18.724 59.4633 18.2851 59.3331 17.7187C59.2155 17.2054 59.2601 16.6284 59.549 16.1788C60.0701 15.3649 60.7894 15.0306 61.6956 14.8145Z" fill="#764191"/>
<path d="M74.5252 14.8122C75.1256 14.7636 75.7139 14.7669 76.2994 14.9252C76.9749 15.108 77.692 15.4853 78.0333 16.125C78.1976 16.4315 78.3236 16.9831 78.2131 17.3236C77.6659 17.4419 76.9975 17.3619 76.4354 17.3555C76.3525 17.0772 76.2824 16.8627 76.0566 16.6701C75.7706 16.4308 75.3989 16.3176 75.0279 16.3579C74.7376 16.3877 74.3645 16.5307 74.2023 16.7905C74.1054 16.9456 74.0657 17.1049 74.1266 17.2833C74.4778 18.3176 76.5826 18.072 77.4011 18.5392C77.9222 18.8373 78.3583 19.3612 78.5062 19.9474C78.6655 20.5769 78.5601 21.2763 78.1969 21.818C77.6545 22.6265 76.7929 22.9309 75.8838 23.1072C74.9911 23.2177 73.9574 23.0279 73.2112 22.5132C72.4451 21.9851 72.215 21.3224 72.043 20.4565L73.9546 20.4423C74.0707 20.7347 74.1762 20.9627 74.424 21.1652C74.7539 21.4356 75.1454 21.5581 75.5709 21.5015C75.9008 21.4576 76.2258 21.3061 76.4233 21.03C76.5522 20.8487 76.6166 20.6285 76.555 20.4084C76.3157 19.5581 74.2052 19.6112 73.3676 19.1602C72.8019 18.855 72.3538 18.3481 72.1747 17.7258C72.0224 17.199 72.0862 16.6503 72.3644 16.1767C72.8267 15.3921 73.6749 15.0084 74.5252 14.8122Z" fill="#764191"/>
<path d="M50.9955 12.8442C51.6299 12.8661 52.2692 12.8526 52.9043 12.8554C52.8972 13.5719 52.9078 14.2886 52.9354 15.0048L54.8187 15.0059L54.8145 16.6473L53.0211 16.6466C53.0218 17.6796 52.7854 20.3444 53.2597 21.1423C53.63 21.434 54.3691 21.325 54.8187 21.3201L54.8123 22.6801C54.8166 22.8203 54.8159 22.8911 54.7444 23.0136C54.4937 23.1339 54.2367 23.1608 53.9599 23.163C53.2314 23.1693 52.2253 23.0376 51.7014 22.4918C50.6493 21.3965 50.9856 18.1737 50.9906 16.6452L49.7754 16.6473L49.779 15.0021L50.9892 15.0103L50.9955 12.8442Z" fill="#764191"/>
<path d="M67.366 12.8354L69.2393 12.8462C69.2252 13.564 69.2549 14.2851 69.2684 15.003L71.1821 14.9992L71.1792 16.6483L69.3781 16.6469C69.4001 17.6303 69.1593 20.3766 69.6047 21.12C70.0833 21.406 70.6829 21.3295 71.221 21.3281C71.2146 21.8018 71.2239 22.2768 71.226 22.7512L71.2033 22.931C71.0178 23.1271 70.7325 23.1186 70.4797 23.125C69.7102 23.1434 68.6475 23.0216 68.0896 22.4375C67.0481 21.3472 67.3724 18.1698 67.3816 16.6462L66.1001 16.6469C66.0838 16.101 66.0902 15.5534 66.0859 15.0075L67.3625 15.0141L67.366 12.8354Z" fill="#764191"/>
<path d="M26.9502 11.6084C27.0487 11.6035 27.1443 11.6021 27.2423 11.6163C27.5485 11.6607 27.8502 11.8086 28.0189 12.0774C28.1978 12.3626 28.2223 12.7425 28.2468 13.0729C28.3682 14.7082 28.278 16.4095 28.2776 18.0506C28.2772 19.3908 28.4258 21.2082 28.1769 22.4989C28.0986 22.9046 27.8296 23.0986 27.5074 23.3181C27.3847 23.3329 27.2563 23.3499 27.1325 23.3428C26.8561 23.3273 26.5942 23.2041 26.4154 22.9931C26.2386 22.7842 26.2437 22.3651 26.2281 22.1031C26.1157 20.222 26.2107 18.2807 26.2124 16.3939C26.2134 15.3217 26.066 13.2692 26.2915 12.3124C26.3721 11.97 26.6806 11.7906 26.9502 11.6084Z" fill="#764191"/>
<path d="M48.6737 14.9763L48.9428 14.9731C49.2619 15.3298 49.1035 16.4599 49.0933 16.9279C48.4191 16.9208 47.7815 16.8939 47.2534 17.3839C46.2624 18.3028 46.5965 21.6708 46.5866 23.0223C46.0554 23.0174 45.0206 23.2114 44.6148 22.8736L44.5936 22.5388C44.6033 20.0339 44.5403 17.5311 44.5563 15.0267C45.1994 15.0467 45.8446 15.033 46.488 15.0296L46.4654 16.1357C46.5847 15.9644 46.7032 15.781 46.8417 15.6248C47.3293 15.0748 47.9905 15.025 48.6737 14.9763Z" fill="#764191"/>
<path d="M55.9891 15.0093L58.0097 15.0101L58.0147 23.0265L55.9707 23.0236L55.9891 15.0093Z" fill="#764191"/>
<path d="M24.1281 14.2354C24.4599 14.2965 24.7534 14.4212 24.9468 14.7094C25.245 15.1539 25.253 19.5093 25.1036 20.1309C25.0219 20.4707 24.7279 20.6364 24.4492 20.7999C24.1299 20.7808 23.7103 20.7525 23.4971 20.4757C23.1799 20.0643 23.2062 15.4354 23.3868 14.8549C23.4917 14.5176 23.8385 14.375 24.1281 14.2354Z" fill="#764191"/>
<path d="M56.8658 11.7065C57.4662 11.6359 58.0142 12.0555 58.102 12.6535C58.1905 13.2515 57.7869 13.8113 57.1922 13.917C56.7908 13.9883 56.383 13.8358 56.1274 13.5191C55.8711 13.2025 55.8081 12.7717 55.9617 12.3946C56.1153 12.0176 56.4615 11.754 56.8658 11.7065Z" fill="#764191"/>
</svg>
