<svg aria-hidden="true" style="position:absolute;width:0;height:0;overflow:hidden" xmlns="http://www.w3.org/2000/svg">
  <defs>
    <symbol id="logo" viewBox="0 0 107 32">
      <path fill="#ff6b0a" style="fill:var(--color1, #ff6b0a)" d="M106.667 0v32H59.536V0h47.131zM74.42 8.811v13.927l.001.044a.842.842 0 0 1-.001.087c-.007.08.015.128.107.115a.485.485 0 0 1 .066-.001l.033.001h3.582c.075.001.112.001.129-.017s.016-.051.014-.116l-.001-.078V8.83l-.001-.033a.485.485 0 0 1 .001-.066c.008-.082-.02-.125-.109-.115-.018.002-.036.001-.054.001l-.028-.001h-3.55l-.062-.001c-.065-.001-.098-.001-.114.015s-.016.049-.015.116l.001.064zm19.579-.194h-5.863c-1.954 0-3.908 0-5.86-.002h-.133c-.066-.003-.089.028-.084.089a.486.486 0 0 1 0 .054v3.398c0 .072-.001.107.017.124s.051.017.118.016H85.923c.12 0 .18 0 .209.03s.029.087.029.2v10.335c-.001.059-.001.09.014.106.017.018.052.017.127.017h3.571c.111 0 .166 0 .193-.028s.027-.08.027-.186V12.488l-.001-.059c-.001-.063-.001-.097.015-.114.018-.019.055-.018.133-.018h3.798c.162 0 .162 0 .164-.159V8.759c.001-.072.001-.108-.016-.126s-.053-.017-.123-.016L94 8.618z"/>
      <path fill="#010101" style="fill:var(--color2, #010101)" d="m47.132 0 12.403 16-12.403 16H0V0h47.132zm-26.38 13.662.215.174a.371.371 0 0 0 .106-.107.256.256 0 0 1 .02-.026c.254-.302.507-.606.76-.91.507-.606 1.012-1.212 1.518-1.82.101-.122.097-.177-.018-.276a12.617 12.617 0 0 0-.277-.233c-.803-.657-1.685-1.17-2.684-1.467a9.43 9.43 0 0 0-2.043-.353c-.905-.061-1.802-.031-2.691.174-3.112.716-5.434 3.292-5.707 6.594a7.795 7.795 0 0 0 .225 2.638c.519 1.96 1.645 3.461 3.434 4.45.975.539 2.03.823 3.14.912.94.076 1.87.018 2.788-.189 1.553-.35 2.925-1.056 4.146-2.067a.333.333 0 0 0 .137-.289c-.004-1.572-.004-3.145-.003-4.717v-1.179a.66.66 0 0 0-.003-.062c-.003-.046-.006-.092.006-.134.015-.049-.012-.077-.037-.104-.021-.022-.042-.044-.039-.077.007-.054-.03-.062-.073-.062h-6.556l-.038.001c-.026.001-.052.002-.077-.001-.066-.007-.087.026-.083.087a.657.657 0 0 1 .001.077l-.001.038V17.839l-.001.074c-.001.063-.002.096.014.112s.052.017.125.016H19.772c.072-.001.107-.001.124.016.016.016.015.048.014.11l-.001.078v.679c0 .308 0 .311-.279.445-.818.391-1.681.503-2.573.391-.991-.123-1.784-.591-2.365-1.401-.378-.527-.585-1.122-.662-1.763-.097-.818.002-1.605.373-2.348.448-.892 1.125-1.533 2.098-1.827.682-.207 1.373-.153 2.056-.003.619.135 1.159.437 1.657.816.182.138.359.281.539.427zm18.346-2.98c-1.528-1.39-3.348-2.052-5.229-2.066-.869.002-1.518.072-2.207.251-1.998.521-3.563 1.638-4.602 3.422-1.067 1.83-1.283 3.793-.687 5.812.667 2.257 2.089 3.9 4.29 4.815 1.69.701 3.44.795 5.206.332 2.051-.537 3.624-1.725 4.654-3.578.869-1.562 1.102-3.238.778-4.987-.291-1.572-1.017-2.919-2.203-4zm-8.437 3.528c.666-1.227 1.729-1.815 2.762-1.838 2.094-.005 3.464 1.173 3.837 2.806.226.984.125 1.94-.358 2.834-.57 1.05-1.458 1.661-2.654 1.797-1.156.133-2.165-.194-2.99-1.025a3.579 3.579 0 0 1-.983-1.914c-.172-.928-.066-1.827.386-2.66z"/>
    </symbol>
    <symbol id="javascript" viewBox="0 0 32 32">
      <path fill="#f7df1e" style="fill:var(--color3, #f7df1e)" d="M0 0h32v32H0V0z"/>
      <path style="fill:var(--color4, #000)" d="m8.414 26.741 2.449-1.482c.473.838.902 1.546 1.933 1.546.988 0 1.611-.387 1.611-1.89V14.69h3.007v10.267c0 3.115-1.826 4.532-4.489 4.532-2.406 0-3.802-1.246-4.511-2.75zm10.634-.322 2.448-1.418c.645 1.053 1.482 1.826 2.964 1.826 1.246 0 2.041-.623 2.041-1.482 0-1.031-.816-1.396-2.191-1.997l-.752-.323c-2.17-.923-3.609-2.083-3.609-4.532 0-2.256 1.718-3.974 4.404-3.974 1.912 0 3.287.666 4.274 2.406l-2.341 1.504c-.516-.924-1.074-1.289-1.933-1.289-.881 0-1.439.558-1.439 1.289 0 .902.558 1.268 1.847 1.826l.752.322c2.556 1.096 3.995 2.212 3.995 4.726 0 2.707-2.127 4.189-4.983 4.189-2.792 0-4.597-1.332-5.477-3.072z"/>
    </symbol>
    <symbol id="icon-Facebook_mobile" viewBox="0 0 31 32">
      <path d="M28.618 16.699c0-7.228-5.824-13.088-13.008-13.088s-13.008 5.86-13.008 13.088c0 6.532 4.757 11.947 10.976 12.929v-9.146h-3.303v-3.783h3.303v-2.883c0-3.28 1.942-5.092 4.913-5.092 1.423 0 2.912 0.256 2.912 0.256v3.221h-1.64c-1.616 0-2.12 1.009-2.12 2.044v2.455h3.608l-0.577 3.783h-3.031v9.146c6.219-0.982 10.976-6.396 10.976-12.929z"></path>
    </symbol>
    <symbol id="icon-Instagram_mobile" viewBox="0 0 31 32">
      <path d="M15.608 6.705c3.128 0 3.498 0.014 4.728 0.069 1.143 0.050 1.76 0.242 2.172 0.402 0.544 0.211 0.937 0.467 1.344 0.874 0.412 0.412 0.663 0.8 0.878 1.345 0.16 0.412 0.352 1.033 0.402 2.172 0.055 1.235 0.069 1.605 0.069 4.728s-0.014 3.498-0.069 4.728c-0.050 1.143-0.242 1.76-0.402 2.172-0.211 0.544-0.466 0.937-0.874 1.344-0.412 0.412-0.8 0.663-1.344 0.878-0.412 0.16-1.034 0.352-2.172 0.402-1.235 0.055-1.605 0.069-4.728 0.069s-3.498-0.014-4.728-0.069c-1.143-0.050-1.76-0.242-2.172-0.402-0.544-0.211-0.937-0.466-1.345-0.874-0.412-0.412-0.663-0.8-0.878-1.344-0.16-0.412-0.352-1.034-0.402-2.172-0.055-1.235-0.069-1.605-0.069-4.728s0.014-3.498 0.069-4.728c0.050-1.143 0.242-1.76 0.402-2.172 0.211-0.544 0.467-0.937 0.874-1.345 0.412-0.412 0.8-0.663 1.345-0.878 0.412-0.16 1.033-0.352 2.172-0.402 1.23-0.055 1.601-0.069 4.728-0.069h0.001zM15.608 4.597c-3.178 0-3.575 0.014-4.824 0.069-1.244 0.055-2.099 0.256-2.839 0.544-0.773 0.301-1.427 0.699-2.076 1.353-0.654 0.65-1.052 1.303-1.353 2.071-0.288 0.746-0.489 1.596-0.544 2.839-0.055 1.253-0.069 1.651-0.069 4.829s0.014 3.575 0.069 4.824c0.055 1.244 0.256 2.099 0.544 2.839 0.302 0.773 0.699 1.427 1.353 2.076 0.649 0.649 1.303 1.052 2.071 1.349 0.746 0.288 1.596 0.489 2.839 0.544 1.248 0.055 1.646 0.069 4.824 0.069s3.576-0.014 4.824-0.069c1.244-0.055 2.099-0.256 2.839-0.544 0.768-0.297 1.422-0.699 2.071-1.349s1.052-1.303 1.349-2.071c0.288-0.745 0.489-1.596 0.544-2.839 0.055-1.248 0.069-1.646 0.069-4.824s-0.014-3.575-0.069-4.824c-0.055-1.244-0.256-2.099-0.544-2.839-0.288-0.778-0.686-1.431-1.34-2.081-0.649-0.649-1.303-1.052-2.071-1.349-0.746-0.288-1.596-0.489-2.839-0.544-1.253-0.059-1.651-0.073-4.829-0.073l-0.001 0.001z"></path>
      <path d="M15.608 10.289c-3.319 0-6.013 2.693-6.013 6.013s2.693 6.013 6.013 6.013c3.32 0 6.013-2.693 6.013-6.013s-2.693-6.013-6.013-6.013zM15.608 20.203c-2.154 0-3.9-1.746-3.9-3.9s1.746-3.9 3.9-3.9c2.154 0 3.9 1.746 3.9 3.9s-1.746 3.9-3.9 3.9z"></path>
      <path d="M23.261 10.052c0 0.775-0.628 1.404-1.404 1.404s-1.404-0.628-1.404-1.404c0-0.775 0.628-1.404 1.404-1.404s1.404 0.628 1.404 1.404z"></path>
    </symbol>
    <symbol id="icon-logo_mobile" viewBox="0 0 96 32">
      <path d="M19.558 0.649c0.517-0.059 1.116 0.056 1.614 0.208 1.127 0.343 2.043 1.078 2.587 2.127 0.565 1.076 0.673 2.334 0.3 3.49-0.473 1.426-1.488 2.144-2.755 2.803l0.014 4.16c0.905 0.276 1.786 0.589 2.608 1.065 1.889 1.095 3.182 2.942 3.724 5.043 0.573 2.204 0.247 4.546-0.905 6.51-1.057 1.78-2.743 3.095-4.761 3.599-2.636 0.659-4.872-0.054-7.138-1.401-1.001 1.071-1.991 2.153-2.968 3.248 0.437 1.030 0.582 2.111 0.292 3.206-0.283 1.070-1.033 1.987-1.992 2.529-1.075 0.608-2.299 0.718-3.477 0.381-1.169-0.335-2.152-1.058-2.724-2.147-0.562-1.070-0.61-2.324-0.245-3.466 0.415-1.298 1.259-2.098 2.447-2.691 1.279-0.5 2.336-0.335 3.584 0.114 1.039-1.094 2.017-2.243 3.067-3.327-1.154-2.263-1.528-4.19-0.928-6.684-1.306-0.61-2.566-1.319-3.873-1.93-0.698 0.727-1.553 1.226-2.555 1.394-1.195 0.201-2.456-0.125-3.439-0.827-0.974-0.705-1.614-1.781-1.772-2.974-0.161-1.156 0.143-2.429 0.883-3.341 0.763-0.941 1.948-1.509 3.144-1.635 1.175-0.114 2.348 0.244 3.258 0.996 1.164 0.975 1.501 2.188 1.642 3.632 1.239 0.759 2.658 1.345 3.948 2.023 1.68-1.986 2.908-2.612 5.356-3.367l0.001-4.129c-0.438-0.175-0.875-0.389-1.257-0.669-0.966-0.715-1.601-1.791-1.757-2.982-0.145-1.185 0.191-2.379 0.93-3.316 0.808-1.014 1.889-1.476 3.143-1.642zM24.956 21.186c-0.249-2.84-2.745-4.946-5.587-4.715-2.867 0.234-4.995 2.755-4.744 5.62s2.787 4.979 5.65 4.71c2.838-0.267 4.929-2.776 4.68-5.615z"></path>
      <path d="M49.208 14.71c1.486 4.578 3.387 9.033 4.835 13.624l-2.738 0.002c-0.321-0.98-0.63-2.089-1.12-2.995-0.32-0.137-0.699-0.091-1.041-0.087-1.321 0.013-2.641 0.009-3.962-0.013-0.415 1.012-0.749 2.052-1.077 3.094l-2.788-0.002c1.456-4.57 3.192-9.082 4.764-13.617 1.040 0.023 2.086-0.002 3.126-0.006zM47.647 18.094c-0.577 1.639-1.114 3.3-1.745 4.918l2.005-0.001 1.558-0.017c-0.219-0.616-1.49-4.627-1.817-4.9z"></path>
      <path d="M75.933 18.233c1.298-0.102 2.652-0.010 3.701 0.865 0.735 0.612 0.973 1.348 1.053 2.262l-2.347-0.003c-0.135-0.251-0.27-0.542-0.482-0.738-0.338-0.312-0.828-0.474-1.285-0.45-0.356 0.019-0.809 0.161-1.031 0.462-0.134 0.183-0.208 0.371-0.157 0.599 0.267 1.203 3.326 1.054 4.3 1.691 0.62 0.406 1.095 1.134 1.233 1.86 0.138 0.742-0.039 1.509-0.487 2.117-0.748 1.031-1.9 1.401-3.099 1.585-1.11 0.067-2.397-0.231-3.286-0.907-0.833-0.634-1.133-1.413-1.246-2.415 0.79 0.002 1.582-0.006 2.372-0.022 0.046 0.149 0.098 0.293 0.173 0.431 0.344 0.635 1.032 0.776 1.669 0.964 0.421-0.097 0.991-0.205 1.29-0.545 0.18-0.206 0.243-0.562 0.167-0.823-0.292-1.006-3.223-1.124-4.24-1.75-0.602-0.371-1.045-0.911-1.205-1.608-0.145-0.632-0.090-1.342 0.266-1.895 0.641-1.002 1.527-1.413 2.642-1.679z"></path>
      <path d="M91.723 18.23c0.739-0.060 1.463-0.056 2.184 0.139 0.831 0.225 1.714 0.689 2.134 1.477 0.202 0.377 0.357 1.056 0.221 1.475-0.673 0.146-1.496 0.047-2.188 0.039-0.102-0.343-0.188-0.607-0.466-0.844-0.352-0.295-0.809-0.434-1.266-0.384-0.357 0.037-0.817 0.213-1.016 0.532-0.119 0.191-0.168 0.387-0.093 0.607 0.432 1.273 3.023 0.971 4.030 1.546 0.641 0.367 1.178 1.012 1.36 1.733 0.196 0.775 0.066 1.636-0.381 2.302-0.668 0.995-1.728 1.37-2.847 1.587-1.099 0.136-2.371-0.098-3.289-0.731-0.943-0.65-1.226-1.466-1.438-2.531l2.353-0.017c0.143 0.36 0.273 0.64 0.578 0.89 0.406 0.333 0.888 0.484 1.412 0.414 0.406-0.054 0.806-0.241 1.049-0.58 0.159-0.223 0.238-0.494 0.162-0.765-0.295-1.047-2.892-0.981-3.923-1.536-0.696-0.376-1.248-1-1.468-1.765-0.187-0.648-0.109-1.324 0.233-1.907 0.569-0.966 1.613-1.438 2.659-1.679z"></path>
      <path d="M62.764 15.808c0.781 0.027 1.568 0.010 2.349 0.014-0.009 0.882 0.004 1.764 0.038 2.645l2.318 0.001-0.005 2.020-2.207-0.001c0.001 1.271-0.29 4.551 0.294 5.533 0.456 0.359 1.365 0.225 1.919 0.219l-0.008 1.674c0.005 0.173 0.004 0.26-0.084 0.41-0.309 0.148-0.625 0.181-0.966 0.184-0.897 0.008-2.135-0.154-2.78-0.826-1.295-1.348-0.881-5.315-0.875-7.196l-1.496 0.003 0.004-2.025 1.489 0.010 0.008-2.666z"></path>
      <path d="M82.912 15.797l2.306 0.013c-0.017 0.883 0.019 1.771 0.036 2.655l2.355-0.005-0.004 2.030-2.217-0.002c0.027 1.21-0.269 4.59 0.279 5.505 0.589 0.352 1.327 0.258 1.989 0.256-0.008 0.583 0.004 1.168 0.006 1.752l-0.028 0.221c-0.228 0.241-0.579 0.231-0.891 0.239-0.947 0.023-2.255-0.127-2.942-0.846-1.282-1.342-0.883-5.253-0.871-7.128l-1.577 0.001c-0.020-0.672-0.012-1.346-0.017-2.018l1.571 0.008 0.004-2.681z"></path>
      <path d="M33.169 14.287c0.121-0.006 0.239-0.008 0.359 0.010 0.377 0.055 0.748 0.237 0.956 0.568 0.22 0.351 0.25 0.819 0.281 1.225 0.149 2.013 0.038 4.107 0.038 6.126-0.001 1.649 0.182 3.886-0.124 5.475-0.096 0.499-0.427 0.738-0.824 1.008-0.151 0.018-0.309 0.039-0.461 0.030-0.34-0.019-0.663-0.171-0.883-0.43-0.218-0.257-0.211-0.773-0.231-1.095-0.138-2.315-0.021-4.704-0.019-7.027 0.001-1.32-0.18-3.846 0.097-5.023 0.099-0.421 0.479-0.642 0.811-0.866z"></path>
      <path d="M59.906 18.432l0.331-0.004c0.393 0.439 0.198 1.83 0.185 2.406-0.83-0.009-1.615-0.042-2.264 0.561-1.22 1.131-0.809 5.276-0.821 6.94-0.654-0.006-1.927 0.233-2.427-0.183l-0.026-0.412c0.012-3.083-0.066-6.163-0.046-9.246 0.791 0.025 1.586 0.008 2.377 0.004l-0.028 1.361c0.147-0.211 0.293-0.437 0.463-0.629 0.6-0.677 1.414-0.738 2.255-0.798z"></path>
      <path d="M68.91 18.473l2.487 0.001 0.006 9.866-2.516-0.004 0.023-9.864z"></path>
      <path d="M29.696 17.52c0.408 0.075 0.77 0.229 1.008 0.583 0.367 0.547 0.377 5.908 0.193 6.673-0.101 0.418-0.462 0.622-0.805 0.823-0.393-0.023-0.909-0.058-1.172-0.399-0.39-0.506-0.358-6.203-0.136-6.918 0.129-0.415 0.556-0.591 0.912-0.762z"></path>
      <path d="M69.989 14.408c0.739-0.087 1.413 0.43 1.521 1.166s-0.388 1.425-1.12 1.555c-0.494 0.088-0.996-0.1-1.311-0.49s-0.393-0.92-0.204-1.384c0.189-0.464 0.615-0.788 1.113-0.847z"></path>
    </symbol>
    <symbol id="icon-Youtube_mobile" viewBox="0 0 31 32">
      <path d="M28.089 10.063c-0.148-0.55-0.438-1.051-0.84-1.454s-0.903-0.694-1.452-0.843c-2.037-0.559-10.187-0.568-10.187-0.568s-8.148-0.009-10.187 0.526c-0.549 0.156-1.049 0.451-1.451 0.856s-0.694 0.907-0.846 1.457c-0.537 2.037-0.542 6.262-0.542 6.262s-0.005 4.246 0.528 6.262c0.299 1.115 1.177 1.995 2.293 2.296 2.058 0.559 10.185 0.568 10.185 0.568s8.15 0.009 10.187-0.524c0.55-0.149 1.051-0.439 1.454-0.841s0.694-0.903 0.845-1.452c0.539-2.036 0.542-6.259 0.542-6.259s0.026-4.247-0.529-6.284zM13.003 20.212l0.006-7.805 6.773 3.909-6.78 3.896z"></path>
    </symbol>
  </defs>
</svg>