<svg aria-hidden="true" style="position:absolute;width:0;height:0;overflow:hidden" xmlns="http://www.w3.org/2000/svg">
  <defs>
    <symbol id="logo" viewBox="0 0 107 32">
      <path fill="#ff6b0a" style="fill:var(--color1, #ff6b0a)" d="M106.667 0v32H59.536V0h47.131zM74.42 8.811v13.927l.001.044a.842.842 0 0 1-.001.087c-.007.08.015.128.107.115a.485.485 0 0 1 .066-.001l.033.001h3.582c.075.001.112.001.129-.017s.016-.051.014-.116l-.001-.078V8.83l-.001-.033a.485.485 0 0 1 .001-.066c.008-.082-.02-.125-.109-.115-.018.002-.036.001-.054.001l-.028-.001h-3.55l-.062-.001c-.065-.001-.098-.001-.114.015s-.016.049-.015.116l.001.064zm19.579-.194h-5.863c-1.954 0-3.908 0-5.86-.002h-.133c-.066-.003-.089.028-.084.089a.486.486 0 0 1 0 .054v3.398c0 .072-.001.107.017.124s.051.017.118.016H85.923c.12 0 .18 0 .209.03s.029.087.029.2v10.335c-.001.059-.001.09.014.106.017.018.052.017.127.017h3.571c.111 0 .166 0 .193-.028s.027-.08.027-.186V12.488l-.001-.059c-.001-.063-.001-.097.015-.114.018-.019.055-.018.133-.018h3.798c.162 0 .162 0 .164-.159V8.759c.001-.072.001-.108-.016-.126s-.053-.017-.123-.016L94 8.618z"/>
      <path fill="#010101" style="fill:var(--color2, #010101)" d="m47.132 0 12.403 16-12.403 16H0V0h47.132zm-26.38 13.662.215.174a.371.371 0 0 0 .106-.107.256.256 0 0 1 .02-.026c.254-.302.507-.606.76-.91.507-.606 1.012-1.212 1.518-1.82.101-.122.097-.177-.018-.276a12.617 12.617 0 0 0-.277-.233c-.803-.657-1.685-1.17-2.684-1.467a9.43 9.43 0 0 0-2.043-.353c-.905-.061-1.802-.031-2.691.174-3.112.716-5.434 3.292-5.707 6.594a7.795 7.795 0 0 0 .225 2.638c.519 1.96 1.645 3.461 3.434 4.45.975.539 2.03.823 3.14.912.94.076 1.87.018 2.788-.189 1.553-.35 2.925-1.056 4.146-2.067a.333.333 0 0 0 .137-.289c-.004-1.572-.004-3.145-.003-4.717v-1.179a.66.66 0 0 0-.003-.062c-.003-.046-.006-.092.006-.134.015-.049-.012-.077-.037-.104-.021-.022-.042-.044-.039-.077.007-.054-.03-.062-.073-.062h-6.556l-.038.001c-.026.001-.052.002-.077-.001-.066-.007-.087.026-.083.087a.657.657 0 0 1 .001.077l-.001.038V17.839l-.001.074c-.001.063-.002.096.014.112s.052.017.125.016H19.772c.072-.001.107-.001.124.016.016.016.015.048.014.11l-.001.078v.679c0 .308 0 .311-.279.445-.818.391-1.681.503-2.573.391-.991-.123-1.784-.591-2.365-1.401-.378-.527-.585-1.122-.662-1.763-.097-.818.002-1.605.373-2.348.448-.892 1.125-1.533 2.098-1.827.682-.207 1.373-.153 2.056-.003.619.135 1.159.437 1.657.816.182.138.359.281.539.427zm18.346-2.98c-1.528-1.39-3.348-2.052-5.229-2.066-.869.002-1.518.072-2.207.251-1.998.521-3.563 1.638-4.602 3.422-1.067 1.83-1.283 3.793-.687 5.812.667 2.257 2.089 3.9 4.29 4.815 1.69.701 3.44.795 5.206.332 2.051-.537 3.624-1.725 4.654-3.578.869-1.562 1.102-3.238.778-4.987-.291-1.572-1.017-2.919-2.203-4zm-8.437 3.528c.666-1.227 1.729-1.815 2.762-1.838 2.094-.005 3.464 1.173 3.837 2.806.226.984.125 1.94-.358 2.834-.57 1.05-1.458 1.661-2.654 1.797-1.156.133-2.165-.194-2.99-1.025a3.579 3.579 0 0 1-.983-1.914c-.172-.928-.066-1.827.386-2.66z"/>
    </symbol>
    <symbol id="javascript" viewBox="0 0 32 32">
      <path fill="#f7df1e" style="fill:var(--color3, #f7df1e)" d="M0 0h32v32H0V0z"/>
      <path style="fill:var(--color4, #000)" d="m8.414 26.741 2.449-1.482c.473.838.902 1.546 1.933 1.546.988 0 1.611-.387 1.611-1.89V14.69h3.007v10.267c0 3.115-1.826 4.532-4.489 4.532-2.406 0-3.802-1.246-4.511-2.75zm10.634-.322 2.448-1.418c.645 1.053 1.482 1.826 2.964 1.826 1.246 0 2.041-.623 2.041-1.482 0-1.031-.816-1.396-2.191-1.997l-.752-.323c-2.17-.923-3.609-2.083-3.609-4.532 0-2.256 1.718-3.974 4.404-3.974 1.912 0 3.287.666 4.274 2.406l-2.341 1.504c-.516-.924-1.074-1.289-1.933-1.289-.881 0-1.439.558-1.439 1.289 0 .902.558 1.268 1.847 1.826l.752.322c2.556 1.096 3.995 2.212 3.995 4.726 0 2.707-2.127 4.189-4.983 4.189-2.792 0-4.597-1.332-5.477-3.072z"/>
    </symbol>
    <symbol id="icon-logoartistsHub" viewBox="0 0 110 32">
      <path d="M16.403 0.241c0.434-0.050 0.936 0.047 1.354 0.174 0.945 0.288 1.714 0.904 2.169 1.784 0.474 0.902 0.564 1.958 0.252 2.927-0.397 1.196-1.248 1.798-2.311 2.351l0.012 3.489c0.759 0.231 1.498 0.494 2.187 0.893 1.585 0.918 2.668 2.467 3.123 4.23 0.48 1.848 0.208 3.812-0.759 5.46-0.887 1.493-2.3 2.596-3.993 3.018-2.211 0.553-4.087-0.046-5.987-1.175-0.84 0.898-1.67 1.806-2.489 2.724 0.366 0.864 0.488 1.771 0.245 2.689-0.237 0.897-0.866 1.666-1.67 2.121-0.901 0.51-1.928 0.602-2.916 0.32-0.981-0.281-1.805-0.888-2.284-1.8-0.472-0.897-0.511-1.949-0.206-2.907 0.348-1.089 1.056-1.759 2.052-2.257 1.072-0.419 1.959-0.281 3.006 0.096 0.872-0.917 1.692-1.881 2.573-2.79-0.968-1.898-1.281-3.515-0.778-5.606-1.095-0.511-2.152-1.107-3.248-1.619-0.586 0.61-1.302 1.028-2.143 1.169-1.003 0.169-2.060-0.105-2.884-0.694-0.817-0.592-1.354-1.494-1.486-2.494-0.135-0.969 0.12-2.037 0.741-2.802 0.64-0.789 1.634-1.266 2.637-1.371 0.986-0.096 1.969 0.205 2.733 0.836 0.976 0.818 1.259 1.835 1.377 3.046 1.039 0.637 2.229 1.128 3.312 1.697 1.409-1.665 2.439-2.191 4.492-2.824l0.001-3.463c-0.367-0.147-0.734-0.326-1.054-0.561-0.81-0.599-1.343-1.502-1.474-2.501-0.121-0.994 0.16-1.995 0.78-2.781 0.678-0.851 1.585-1.238 2.636-1.377zM20.931 17.465c-0.209-2.382-2.302-4.149-4.685-3.955-2.404 0.196-4.19 2.311-3.979 4.714s2.337 4.176 4.739 3.951c2.38-0.224 4.134-2.328 3.925-4.71z"></path>
      <path d="M102.108 12.055c0.708 0.001 1.416 0.010 2.124 0.028l-0.004 3.743c0.545-0.424 1.14-0.74 1.83-0.844 0.933-0.141 1.885 0.101 2.637 0.67 0.908 0.687 1.385 1.843 1.523 2.947 0.175 1.402-0.154 2.75-1.019 3.867-0.574 0.554-1.262 0.941-2.056 1.072-1.165 0.191-2.089-0.216-2.998-0.894l-0.004 0.818-2.033-0.004-0.001-11.403zM105.748 16.96c-0.631 0.21-1.070 0.509-1.378 1.117-0.342 0.675-0.365 1.509-0.098 2.212 0.203 0.538 0.585 1.004 1.117 1.244 0.386 0.175 0.749 0.18 1.165 0.155 0.659-0.249 1.102-0.569 1.401-1.229 0.312-0.689 0.307-1.52 0.011-2.214-0.227-0.533-0.632-0.963-1.177-1.174-0.341-0.131-0.682-0.149-1.042-0.111z"></path>
      <path d="M41.271 12.034c1.246 3.84 2.84 7.576 4.056 11.426l-2.296 0.002c-0.269-0.822-0.529-1.752-0.939-2.512-0.268-0.115-0.586-0.076-0.873-0.073-1.108 0.011-2.215 0.008-3.323-0.011-0.348 0.848-0.628 1.721-0.903 2.595l-2.339-0.002c1.221-3.833 2.677-7.617 3.996-11.42 0.872 0.019 1.749-0.002 2.622-0.005zM39.962 14.872c-0.483 1.374-0.934 2.768-1.464 4.125l1.681-0.001 1.307-0.014c-0.184-0.517-1.25-3.881-1.524-4.11z"></path>
      <path d="M89.685 12.058l2.196 0.013c-0.030 2.647-0.007 5.298-0.007 7.945-0.001 1.093 0.11 2.287-0.012 3.365l-0.121 0.083h-2.058l-0.004-4.889c-1.645-0.046-3.303-0.005-4.949-0.003l0.001 4.894-2.209-0.004 0.009-11.401 2.201 0.005 0.001 4.661h4.957l-0.003-4.67z"></path>
      <path d="M93.202 15.219c0.729 0.021 1.459 0.013 2.188 0.017-0.009 1.165-0.193 4.384 0.089 5.347 0.111 0.38 0.333 0.728 0.693 0.913 0.541 0.278 1.090 0.117 1.628-0.072 0.238-0.266 0.443-0.515 0.561-0.859 0.386-1.123 0.18-4.006 0.174-5.343 0.694 0.019 1.391 0.004 2.085 0.001-0.016 0.8-0.003 1.603-0.004 2.404l0.011 5.834c-0.683 0.010-1.365 0.005-2.047-0.015l-0.063-0.074c0.010-0.173 0.012-0.314-0.018-0.487-0.639 0.277-1.209 0.697-1.936 0.712-0.843 0.017-1.758-0.245-2.364-0.851-0.459-0.459-0.739-1.077-0.883-1.703-0.31-1.348-0.127-4.332-0.113-5.824z"></path>
      <path d="M63.686 14.989c1.089-0.085 2.224-0.008 3.104 0.725 0.617 0.514 0.816 1.13 0.883 1.897l-1.968-0.002c-0.113-0.21-0.227-0.455-0.404-0.619-0.284-0.262-0.694-0.398-1.078-0.377-0.298 0.016-0.679 0.135-0.865 0.387-0.113 0.154-0.175 0.311-0.132 0.503 0.224 1.009 2.79 0.884 3.607 1.419 0.52 0.341 0.919 0.951 1.034 1.56 0.115 0.623-0.033 1.266-0.408 1.775-0.627 0.865-1.593 1.175-2.599 1.329-0.931 0.056-2.010-0.194-2.756-0.761-0.699-0.532-0.95-1.185-1.045-2.025 0.663 0.001 1.326-0.005 1.989-0.018 0.039 0.125 0.082 0.246 0.145 0.361 0.289 0.533 0.865 0.651 1.4 0.808 0.353-0.081 0.831-0.172 1.082-0.457 0.151-0.172 0.204-0.471 0.14-0.691-0.245-0.843-2.703-0.943-3.556-1.467-0.505-0.311-0.876-0.764-1.011-1.349-0.121-0.53-0.075-1.125 0.223-1.59 0.538-0.84 1.28-1.185 2.216-1.408z"></path>
      <path d="M76.929 14.987c0.62-0.050 1.227-0.047 1.831 0.117 0.697 0.189 1.438 0.578 1.79 1.238 0.17 0.317 0.3 0.886 0.186 1.237-0.565 0.122-1.255 0.039-1.835 0.033-0.086-0.287-0.158-0.509-0.391-0.707-0.295-0.247-0.679-0.364-1.062-0.322-0.3 0.031-0.685 0.178-0.852 0.447-0.1 0.16-0.141 0.324-0.078 0.509 0.363 1.068 2.535 0.814 3.38 1.297 0.538 0.308 0.988 0.849 1.141 1.454 0.164 0.65 0.056 1.372-0.319 1.931-0.56 0.835-1.449 1.149-2.388 1.331-0.921 0.114-1.989-0.082-2.759-0.613-0.791-0.545-1.028-1.229-1.206-2.123l1.973-0.015c0.12 0.302 0.229 0.537 0.485 0.746 0.341 0.279 0.745 0.406 1.184 0.347 0.341-0.045 0.676-0.202 0.88-0.487 0.133-0.187 0.2-0.414 0.136-0.642-0.247-0.878-2.426-0.823-3.29-1.288-0.584-0.315-1.046-0.838-1.231-1.481-0.157-0.544-0.091-1.11 0.196-1.599 0.477-0.81 1.353-1.206 2.231-1.408z"></path>
      <path d="M52.64 12.955c0.655 0.023 1.315 0.009 1.97 0.011-0.007 0.74 0.004 1.48 0.032 2.219l1.944 0.001-0.004 1.694-1.851-0.001c0.001 1.066-0.243 3.817 0.246 4.641 0.382 0.301 1.145 0.189 1.609 0.183l-0.007 1.404c0.004 0.145 0.004 0.218-0.070 0.344-0.259 0.124-0.524 0.152-0.81 0.154-0.752 0.007-1.791-0.129-2.331-0.693-1.086-1.131-0.739-4.457-0.734-6.035l-1.254 0.002 0.004-1.698 1.249 0.008 0.007-2.236z"></path>
      <path d="M69.539 12.946l1.934 0.011c-0.015 0.741 0.016 1.485 0.030 2.226l1.975-0.004-0.003 1.702-1.859-0.001c0.023 1.015-0.226 3.85 0.234 4.617 0.494 0.295 1.113 0.216 1.668 0.215-0.007 0.489 0.003 0.979 0.005 1.469l-0.023 0.186c-0.191 0.202-0.486 0.194-0.747 0.2-0.794 0.019-1.891-0.107-2.467-0.71-1.075-1.125-0.74-4.405-0.731-5.978l-1.323 0.001c-0.017-0.563-0.010-1.129-0.015-1.692l1.318 0.007 0.004-2.249z"></path>
      <path d="M27.82 11.679c0.102-0.005 0.2-0.007 0.302 0.008 0.316 0.046 0.628 0.198 0.802 0.476 0.185 0.294 0.21 0.687 0.235 1.028 0.125 1.688 0.032 3.444 0.032 5.138-0 1.384 0.153 3.26-0.104 4.592-0.081 0.419-0.358 0.619-0.691 0.846-0.127 0.015-0.259 0.033-0.387 0.026-0.285-0.016-0.556-0.143-0.74-0.361-0.183-0.216-0.177-0.648-0.193-0.919-0.116-1.942-0.018-3.946-0.016-5.893 0.001-1.107-0.151-3.225 0.082-4.213 0.083-0.353 0.402-0.539 0.68-0.727z"></path>
      <path d="M50.244 15.156l0.278-0.003c0.329 0.368 0.166 1.535 0.155 2.018-0.696-0.007-1.354-0.035-1.899 0.471-1.023 0.949-0.678 4.425-0.688 5.82-0.548-0.005-1.617 0.195-2.035-0.154l-0.022-0.346c0.010-2.586-0.055-5.169-0.038-7.754 0.664 0.021 1.33 0.007 1.994 0.003l-0.023 1.142c0.123-0.177 0.245-0.366 0.388-0.527 0.503-0.568 1.186-0.619 1.891-0.669z"></path>
      <path d="M57.795 15.19l2.086 0.001 0.005 8.275-2.11-0.003 0.019-8.273z"></path>
      <path d="M24.906 14.391c0.343 0.063 0.645 0.192 0.845 0.489 0.308 0.459 0.316 4.955 0.162 5.596-0.084 0.351-0.388 0.522-0.675 0.691-0.33-0.020-0.763-0.049-0.983-0.335-0.327-0.425-0.3-5.203-0.114-5.802 0.108-0.348 0.466-0.495 0.765-0.64z"></path>
      <path d="M58.7 11.781c0.62-0.073 1.185 0.36 1.276 0.978s-0.325 1.195-0.939 1.304c-0.414 0.073-0.835-0.084-1.099-0.411s-0.33-0.771-0.171-1.161c0.159-0.389 0.516-0.661 0.933-0.71z"></path>
    </symbol>
    <symbol id="icon-Facebook_mobile" viewBox="0 0 31 32">
      <path d="M28.618 16.699c0-7.228-5.824-13.088-13.008-13.088s-13.008 5.86-13.008 13.088c0 6.532 4.757 11.947 10.976 12.929v-9.146h-3.303v-3.783h3.303v-2.883c0-3.28 1.942-5.092 4.913-5.092 1.423 0 2.912 0.256 2.912 0.256v3.221h-1.64c-1.616 0-2.12 1.009-2.12 2.044v2.455h3.608l-0.577 3.783h-3.031v9.146c6.219-0.982 10.976-6.396 10.976-12.929z"></path>
    </symbol>
    <symbol id="icon-Instagram_mobile" viewBox="0 0 31 32">
      <path d="M15.608 6.705c3.128 0 3.498 0.014 4.728 0.069 1.143 0.050 1.76 0.242 2.172 0.402 0.544 0.211 0.937 0.467 1.344 0.874 0.412 0.412 0.663 0.8 0.878 1.345 0.16 0.412 0.352 1.033 0.402 2.172 0.055 1.235 0.069 1.605 0.069 4.728s-0.014 3.498-0.069 4.728c-0.050 1.143-0.242 1.76-0.402 2.172-0.211 0.544-0.466 0.937-0.874 1.344-0.412 0.412-0.8 0.663-1.344 0.878-0.412 0.16-1.034 0.352-2.172 0.402-1.235 0.055-1.605 0.069-4.728 0.069s-3.498-0.014-4.728-0.069c-1.143-0.050-1.76-0.242-2.172-0.402-0.544-0.211-0.937-0.466-1.345-0.874-0.412-0.412-0.663-0.8-0.878-1.344-0.16-0.412-0.352-1.034-0.402-2.172-0.055-1.235-0.069-1.605-0.069-4.728s0.014-3.498 0.069-4.728c0.050-1.143 0.242-1.76 0.402-2.172 0.211-0.544 0.467-0.937 0.874-1.345 0.412-0.412 0.8-0.663 1.345-0.878 0.412-0.16 1.033-0.352 2.172-0.402 1.23-0.055 1.601-0.069 4.728-0.069h0.001zM15.608 4.597c-3.178 0-3.575 0.014-4.824 0.069-1.244 0.055-2.099 0.256-2.839 0.544-0.773 0.301-1.427 0.699-2.076 1.353-0.654 0.65-1.052 1.303-1.353 2.071-0.288 0.746-0.489 1.596-0.544 2.839-0.055 1.253-0.069 1.651-0.069 4.829s0.014 3.575 0.069 4.824c0.055 1.244 0.256 2.099 0.544 2.839 0.302 0.773 0.699 1.427 1.353 2.076 0.649 0.649 1.303 1.052 2.071 1.349 0.746 0.288 1.596 0.489 2.839 0.544 1.248 0.055 1.646 0.069 4.824 0.069s3.576-0.014 4.824-0.069c1.244-0.055 2.099-0.256 2.839-0.544 0.768-0.297 1.422-0.699 2.071-1.349s1.052-1.303 1.349-2.071c0.288-0.745 0.489-1.596 0.544-2.839 0.055-1.248 0.069-1.646 0.069-4.824s-0.014-3.575-0.069-4.824c-0.055-1.244-0.256-2.099-0.544-2.839-0.288-0.778-0.686-1.431-1.34-2.081-0.649-0.649-1.303-1.052-2.071-1.349-0.746-0.288-1.596-0.489-2.839-0.544-1.253-0.059-1.651-0.073-4.829-0.073l-0.001 0.001z"></path>
      <path d="M15.608 10.289c-3.319 0-6.013 2.693-6.013 6.013s2.693 6.013 6.013 6.013c3.32 0 6.013-2.693 6.013-6.013s-2.693-6.013-6.013-6.013zM15.608 20.203c-2.154 0-3.9-1.746-3.9-3.9s1.746-3.9 3.9-3.9c2.154 0 3.9 1.746 3.9 3.9s-1.746 3.9-3.9 3.9z"></path>
      <path d="M23.261 10.052c0 0.775-0.628 1.404-1.404 1.404s-1.404-0.628-1.404-1.404c0-0.775 0.628-1.404 1.404-1.404s1.404 0.628 1.404 1.404z"></path>
    </symbol>
    <symbol id="icon-Youtube_mobile" viewBox="0 0 31 32">
      <path d="M28.089 10.063c-0.148-0.55-0.438-1.051-0.84-1.454s-0.903-0.694-1.452-0.843c-2.037-0.559-10.187-0.568-10.187-0.568s-8.148-0.009-10.187 0.526c-0.549 0.156-1.049 0.451-1.451 0.856s-0.694 0.907-0.846 1.457c-0.537 2.037-0.542 6.262-0.542 6.262s-0.005 4.246 0.528 6.262c0.299 1.115 1.177 1.995 2.293 2.296 2.058 0.559 10.185 0.568 10.185 0.568s8.15 0.009 10.187-0.524c0.55-0.149 1.051-0.439 1.454-0.841s0.694-0.903 0.845-1.452c0.539-2.036 0.542-6.259 0.542-6.259s0.026-4.247-0.529-6.284zM13.003 20.212l0.006-7.805 6.773 3.909-6.78 3.896z"></path>
    </symbol>
  </defs>
</svg>