<svg aria-hidden="true" style="position: absolute; width: 0; height: 0; overflow: hidden;" version="1.1" xmlns="http://www.w3.org/2000/svg" xmlns:xlink="http://www.w3.org/1999/xlink">
<defs>
<symbol id="icon-about-logo-svg1" viewBox="0 0 32 32">
<path d="M17.5 3.14c0.384-0.041 0.83 0.039 1.2 0.144 0.838 0.238 1.518 0.747 1.922 1.474 0.42 0.745 0.5 1.616 0.224 2.417-0.352 0.988-1.105 1.484-2.047 1.941l0.011 2.881c0.673 0.191 1.328 0.408 1.939 0.738 1.404 0.758 2.365 2.037 2.768 3.493 0.426 1.526 0.183 3.148-0.673 4.508-0.786 1.233-2.038 2.143-3.538 2.492-1.959 0.456-3.622-0.038-5.306-0.971-0.744 0.742-1.48 1.492-2.206 2.25 0.325 0.713 0.432 1.462 0.217 2.22-0.21 0.741-0.768 1.376-1.48 1.751-0.799 0.421-1.709 0.498-2.585 0.265-0.869-0.232-1.599-0.734-2.024-1.487-0.418-0.741-0.454-1.609-0.183-2.4 0.308-0.899 0.936-1.453 1.819-1.864 0.95-0.346 1.736-0.232 2.664 0.079 0.772-0.757 1.499-1.553 2.28-2.303-0.858-1.567-1.135-2.902-0.689-4.629-0.971-0.422-1.907-0.914-2.879-1.337-0.519 0.504-1.154 0.849-1.899 0.966-0.889 0.139-1.826-0.087-2.556-0.573-0.724-0.489-1.2-1.233-1.317-2.059-0.12-0.801 0.107-1.683 0.657-2.314 0.567-0.652 1.448-1.045 2.337-1.132 0.874-0.079 1.746 0.169 2.422 0.69 0.865 0.675 1.115 1.515 1.22 2.515 0.921 0.526 1.976 0.932 2.935 1.401 1.248-1.375 2.161-1.809 3.98-2.332l0.001-2.859c-0.326-0.121-0.651-0.269-0.935-0.463-0.718-0.495-1.189-1.24-1.306-2.065-0.108-0.821 0.141-1.647 0.691-2.296 0.601-0.702 1.404-1.022 2.336-1.137zM21.512 17.362c-0.185-1.967-2.040-3.426-4.151-3.266-2.131 0.161-3.714 1.908-3.527 3.893s2.072 3.448 4.2 3.262c2.11-0.185 3.663-1.922 3.478-3.889z"></path>
<path d="M27.617 12.585c0.090-0.004 0.178-0.005 0.267 0.007 0.28 0.038 0.556 0.164 0.71 0.393 0.164 0.243 0.186 0.567 0.209 0.849 0.111 1.394 0.029 2.844 0.028 4.243-0 1.142 0.136 2.691-0.092 3.791-0.072 0.346-0.318 0.511-0.612 0.698-0.112 0.013-0.23 0.027-0.343 0.021-0.253-0.013-0.492-0.118-0.656-0.298-0.162-0.178-0.157-0.535-0.171-0.759-0.103-1.603-0.016-3.258-0.014-4.866 0.001-0.914-0.134-2.663 0.072-3.479 0.074-0.292 0.356-0.445 0.603-0.6z"></path>
<path d="M25.036 14.825c0.303 0.052 0.572 0.158 0.749 0.404 0.273 0.379 0.28 4.091 0.143 4.621-0.075 0.29-0.344 0.431-0.599 0.57-0.292-0.016-0.676-0.040-0.871-0.276-0.29-0.351-0.266-4.296-0.101-4.791 0.096-0.287 0.413-0.409 0.678-0.528z"></path>
</symbol>
<symbol id="icon-artist-svg-1" viewBox="0 0 17 32">
<path d="M0 31.038l17.067-14.933-17.067-14.933v29.867z"></path>
</symbol>
<symbol id="icon-artist-svg2" viewBox="0 0 30 32">
<path d="M29.242 16.215l-3.017-3.017-9.158 9.159v-20.45h-4.267v20.45l-9.158-9.159-3.017 3.017 14.308 14.308 14.308-14.308z"></path>
</symbol>
<symbol id="icon-burger" viewBox="0 0 43 32">
<path d="M0 0h42.667v5.333h-42.667v-5.333zM10.667 13.333h32v5.333h-32v-5.333zM24 26.667h18.667v5.333h-18.667v-5.333z"></path>
</symbol>
<symbol id="icon-close" viewBox="0 0 32 32">
<path d="M29.671 28.728l-0.943 0.943c-0.521 0.521-1.365 0.521-1.886 0l-10.842-10.842-10.842 10.842c-0.521 0.521-1.365 0.521-1.886 0l-0.943-0.943c-0.521-0.521-0.521-1.365 0-1.886l10.842-10.842-10.842-10.842c-0.521-0.521-0.521-1.365 0-1.886l0.943-0.943c0.521-0.521 1.365-0.521 1.886 0l10.842 10.842 10.842-10.842c0.521-0.521 1.365-0.521 1.886 0l0.943 0.943c0.521 0.521 0.521 1.365 0 1.886l-10.842 10.842 10.842 10.842c0.521 0.521 0.521 1.365 0 1.886z"></path>
</symbol>
<symbol id="icon-faceboock" viewBox="0 0 32 32">
<path d="M31.686 16.372c0-8.716-7.023-15.782-15.686-15.782s-15.686 7.066-15.686 15.782c0 7.877 5.736 14.406 13.235 15.59v-11.028h-3.983v-4.562h3.983v-3.477c0-3.955 2.342-6.14 5.925-6.14 1.716 0 3.511 0.308 3.511 0.308v3.884h-1.978c-1.949 0-2.556 1.217-2.556 2.465v2.96h4.351l-0.695 4.562h-3.655v11.028c7.499-1.184 13.235-7.713 13.235-15.59z"></path>
</symbol>
<symbol id="icon-feedback-svg1" viewBox="0 0 34 32">
<path d="M15.277 1.031c0.579-1.375 2.551-1.375 3.13 0l3.417 8.116c0.244 0.58 0.796 0.976 1.43 1.026l8.869 0.702c1.503 0.119 2.112 1.972 0.967 2.941l-6.757 5.718c-0.483 0.408-0.694 1.049-0.546 1.66l2.064 8.55c0.35 1.449-1.245 2.594-2.532 1.817l-7.593-4.582c-0.542-0.327-1.224-0.327-1.767 0l-7.593 4.582c-1.287 0.776-2.882-0.369-2.532-1.817l2.064-8.55c0.147-0.611-0.063-1.252-0.546-1.66l-6.757-5.718c-1.145-0.969-0.536-2.822 0.967-2.941l8.869-0.702c0.633-0.050 1.185-0.446 1.429-1.026l3.417-8.116z"></path>
</symbol>
<symbol id="icon-feedback-svg2" viewBox="0 0 28 32">
<path d="M28.444 17.382c0 7.855-6.367 14.222-14.222 14.222s-14.222-6.367-14.222-14.222c0-7.855 6.367-14.222 14.222-14.222s14.222 6.367 14.222 14.222z"></path>
</symbol>
<symbol id="icon-hero-svg" viewBox="0 0 23 32">
<path d="M0.817 31.064c0.246 0.128 0.523 0.187 0.801 0.17s0.545-0.11 0.774-0.267l19.809-13.714c0.202-0.14 0.368-0.327 0.482-0.546s0.174-0.461 0.174-0.707-0.060-0.489-0.174-0.707c-0.114-0.218-0.28-0.405-0.482-0.546l-19.809-13.714c-0.228-0.159-0.496-0.253-0.774-0.27s-0.555 0.041-0.802 0.171c-0.247 0.129-0.453 0.324-0.597 0.562s-0.219 0.512-0.218 0.79v27.429c-0 0.278 0.076 0.551 0.22 0.789s0.35 0.432 0.597 0.561zM3.048 5.195l15.608 10.805-15.608 10.805v-21.611z"></path>
</symbol>
<symbol id="icon-Instagram" viewBox="0 0 31 32">
<path d="M15.608 6.705c3.128 0 3.498 0.014 4.728 0.069 1.143 0.050 1.76 0.242 2.172 0.402 0.544 0.211 0.937 0.467 1.344 0.874 0.412 0.412 0.663 0.8 0.878 1.345 0.16 0.412 0.352 1.033 0.402 2.172 0.055 1.235 0.069 1.605 0.069 4.728s-0.014 3.498-0.069 4.728c-0.050 1.143-0.242 1.76-0.402 2.172-0.211 0.544-0.466 0.937-0.874 1.344-0.412 0.412-0.8 0.663-1.344 0.878-0.412 0.16-1.034 0.352-2.172 0.402-1.235 0.055-1.605 0.069-4.728 0.069s-3.498-0.014-4.728-0.069c-1.143-0.050-1.76-0.242-2.172-0.402-0.544-0.211-0.937-0.466-1.345-0.874-0.412-0.412-0.663-0.8-0.878-1.344-0.16-0.412-0.352-1.034-0.402-2.172-0.055-1.235-0.069-1.605-0.069-4.728s0.014-3.498 0.069-4.728c0.050-1.143 0.242-1.76 0.402-2.172 0.211-0.544 0.467-0.937 0.874-1.345 0.412-0.412 0.8-0.663 1.345-0.878 0.412-0.16 1.033-0.352 2.172-0.402 1.23-0.055 1.601-0.069 4.728-0.069h0.001zM15.608 4.597c-3.178 0-3.575 0.014-4.824 0.069-1.244 0.055-2.099 0.256-2.839 0.544-0.773 0.301-1.427 0.699-2.076 1.353-0.654 0.65-1.052 1.303-1.353 2.071-0.288 0.746-0.489 1.596-0.544 2.839-0.055 1.253-0.069 1.651-0.069 4.829s0.014 3.575 0.069 4.824c0.055 1.244 0.256 2.099 0.544 2.839 0.302 0.773 0.699 1.427 1.353 2.076 0.649 0.649 1.303 1.052 2.071 1.349 0.746 0.288 1.596 0.489 2.839 0.544 1.248 0.055 1.646 0.069 4.824 0.069s3.576-0.014 4.824-0.069c1.244-0.055 2.099-0.256 2.839-0.544 0.768-0.297 1.422-0.699 2.071-1.349s1.052-1.303 1.349-2.071c0.288-0.746 0.489-1.596 0.544-2.839 0.055-1.248 0.069-1.646 0.069-4.824s-0.014-3.575-0.069-4.824c-0.055-1.244-0.256-2.099-0.544-2.839-0.288-0.778-0.686-1.431-1.34-2.081-0.649-0.649-1.303-1.052-2.071-1.349-0.746-0.288-1.596-0.489-2.839-0.544-1.253-0.059-1.651-0.073-4.829-0.073l-0.001 0.001z"></path>
<path d="M15.608 10.289c-3.319 0-6.013 2.693-6.013 6.013s2.693 6.013 6.013 6.013c3.32 0 6.013-2.693 6.013-6.013s-2.693-6.013-6.013-6.013zM15.608 20.203c-2.154 0-3.9-1.746-3.9-3.9s1.746-3.9 3.9-3.9c2.154 0 3.9 1.746 3.9 3.9s-1.746 3.9-3.9 3.9z"></path>
<path d="M23.261 10.052c0 0.775-0.628 1.404-1.404 1.404s-1.404-0.628-1.404-1.404c0-0.775 0.628-1.404 1.404-1.404s1.404 0.628 1.404 1.404z"></path>
</symbol>
<symbol id="icon-youtube" viewBox="0 0 45 32">
<path d="M43.985 5.192c-0.253-0.939-0.748-1.796-1.435-2.484s-1.542-1.185-2.481-1.44c-3.48-0.956-17.402-0.971-17.402-0.971s-13.92-0.016-17.402 0.898c-0.938 0.267-1.792 0.771-2.479 1.463s-1.185 1.549-1.446 2.489c-0.918 3.48-0.927 10.698-0.927 10.698s-0.009 7.253 0.902 10.698c0.511 1.904 2.011 3.409 3.918 3.922 3.516 0.955 17.4 0.971 17.4 0.971s13.922 0.016 17.402-0.896c0.939-0.255 1.795-0.75 2.484-1.437s1.186-1.542 1.443-2.48c0.92-3.478 0.927-10.693 0.927-10.693s0.044-7.256-0.904-10.736zM18.214 22.53l0.011-13.333 11.571 6.678-11.582 6.656z"></path>
</symbol>
</defs>
</svg>
